<svg xmlns="http://www.w3.org/2000/svg" xmlns:xlink="http://www.w3.org/1999/xlink" width="160" height="160" version="1.1" viewBox="0 0 160 160"><title>logo-harvey-nichols</title><desc>Created with Sketch.</desc><g id="**Symbols**" fill="none" fill-rule="evenodd" stroke="none" stroke-width="1"><g id="logo-harvey-nichols" fill="#000"><g id="Group-13" transform="translate(12.000000, 55.000000)"><g id="Group-12"><polygon id="path208" points="11.771 12.052 11.771 19.594 13.852 19.594 13.852 1.01 11.771 1.01 11.771 10.129 2.207 10.129 2.207 1.01 .125 1.01 .125 19.594 2.207 19.594 2.207 12.052" transform="translate(6.988896, 10.302063) scale(1, -1) translate(-6.988896, -10.302063)"/><path id="path212" d="M32.9413689,14.7647056 L29.7447442,7.32082021 L36.0638351,7.32082021 L32.9413689,14.7647056 Z M28.9026541,5.39797018 L26.647648,0.123478988 L24.3682477,0.123478988 L32.9911332,19.5946408 L41.3905672,0.123478988 L39.0857969,0.123478988 L36.8815309,5.39797018 L28.9026541,5.39797018 Z" transform="translate(32.879407, 9.859060) scale(1, -1) translate(-32.879407, -9.859060)"/><path id="path224" d="M55.0323917,10.9924834 L55.6764004,10.9924834 C58.030935,10.9924834 60.4088882,11.4360687 60.4088882,14.3198584 C60.4088882,17.3764232 58.1548579,17.6714996 55.6520061,17.6714996 L55.0323917,17.6714996 L55.0323917,10.9924834 Z M55.0323917,1.01035838 L52.9510729,1.01035838 L52.9510729,19.5943496 L55.6520061,19.5943496 C59.1950295,19.5943496 62.4902071,18.6576761 62.4902071,14.4673966 C62.4902071,11.6088437 60.682104,9.58795843 57.8074836,9.34141431 L63.7538301,1.01035838 L61.2021898,1.01035838 L55.5524775,9.16863929 L55.0323917,9.16863929 L55.0323917,1.01035838 L55.0323917,1.01035838 Z" transform="translate(58.352451, 10.302354) scale(1, -1) translate(-58.352451, -10.302354)"/><polygon id="path228" points="81.757 6.531 87.083 20.703 89.338 20.703 81.757 1.01 74.175 20.703 76.429 20.703" transform="translate(81.756569, 10.856690) scale(1, -1) translate(-81.756569, -10.856690)"/><polygon id="path232" points="100.899 19.594 110.587 19.594 110.587 17.671 102.981 17.671 102.981 12.15 110.364 12.15 110.364 10.227 102.981 10.227 102.981 2.932 110.587 2.932 110.587 1.01 100.899 1.01" transform="translate(105.743124, 10.302063) scale(1, -1) translate(-105.743124, -10.302063)"/><polygon id="path236" points="121.187 19.727 123.59 19.727 128.349 11.446 133.105 19.727 135.509 19.727 129.389 9.129 129.389 1.143 127.307 1.143 127.307 9.129 121.187 19.727" transform="translate(128.348091, 10.435273) scale(1, -1) translate(-128.348091, -10.435273)"/></g><g id="Group-11" transform="translate(0.000000, 29.725211)"><polygon id="path240" points=".532 20.433 15.102 5.249 15.102 19.644 17.183 19.644 17.183 .221 2.614 15.38 2.614 1.06 .532 1.06 .532 20.433" transform="translate(8.857670, 10.327008) scale(1, -1) translate(-8.857670, -10.327008)"/><polygon id="path242" points="28.16 1.011 26.079 1.011 26.079 19.595 28.16 19.595" transform="translate(27.119413, 10.302548) scale(1, -1) translate(-27.119413, -10.302548)"/><path id="path246" d="M51.1535232,15.5277305 C49.6664487,17.0555275 47.6104999,17.9922011 45.4550224,17.9922011 C41.2923847,17.9922011 37.9230485,14.3940158 37.9230485,10.3017716 C37.9230485,6.21146872 41.3158032,2.61231279 45.5047867,2.61231279 C47.6104999,2.61231279 49.6664487,3.59848928 51.1535232,5.07678337 L51.1535232,2.51330688 C49.5425258,1.35435537 47.5607356,0.68946276 45.5789453,0.68946276 C40.3000259,0.68946276 35.8397781,4.95351131 35.8397781,10.2280025 C35.8397781,15.5519967 40.2268431,19.9150511 45.5789453,19.9150511 C47.6592884,19.9150511 49.4937373,19.322957 51.1535232,18.091207 L51.1535232,15.5277305" transform="translate(43.496651, 10.302257) scale(1, -1) translate(-43.496651, -10.302257)"/><polygon id="path250" points="71.373 12.052 71.373 19.594 73.454 19.594 73.454 1.01 71.373 1.01 71.373 10.129 61.807 10.129 61.807 1.01 59.727 1.01 59.727 19.594 61.807 19.594 61.807 12.052" transform="translate(66.590411, 10.302063) scale(1, -1) translate(-66.590411, -10.302063)"/><path id="path254" d="M83.4135753,10.302354 C83.4135753,6.11207456 86.8336516,2.61289518 91.0704479,2.61289518 C95.3072442,2.61289518 98.7273204,6.11207456 98.7273204,10.302354 C98.7273204,14.5168996 95.3570085,17.9918128 91.0704479,17.9918128 C86.784863,17.9918128 83.4135753,14.5168996 83.4135753,10.302354 M100.807664,10.2780878 C100.807664,4.9288569 96.39718,0.690045148 91.0704479,0.690045148 C85.7427399,0.690045148 81.3322565,4.9288569 81.3322565,10.2780878 C81.3322565,15.6011114 85.7427399,19.9146629 91.0704479,19.9146629 C96.39718,19.9146629 100.807664,15.6011114 100.807664,10.2780878" transform="translate(91.069960, 10.302354) scale(1, -1) translate(-91.069960, -10.302354)"/><polygon id="path258" points="110.669 2.933 115.823 2.933 115.823 1.01 108.588 1.01 108.588 19.595 110.669 19.595 110.669 2.933" transform="translate(112.205543, 10.302257) scale(1, -1) translate(-112.205543, -10.302257)"/><path id="path262" d="M131.697098,16.4251304 C130.953561,17.7063833 130.061706,18.4460157 128.475103,18.4460157 C126.815317,18.4460157 125.378007,17.262798 125.378007,15.5622259 C125.378007,13.9606598 127.037793,13.2210274 128.302392,12.6541701 L129.540645,12.1115789 C131.969338,11.0516333 134.025287,9.84414945 134.025287,6.88659062 C134.025287,3.63298472 131.400464,1.14327734 128.152123,1.14327734 C125.154555,1.14327734 122.924919,3.06612737 122.330675,5.94894644 L124.361254,6.51580379 C124.635445,4.61916121 126.09715,3.06612737 128.103334,3.06612737 C130.11147,3.06612737 131.944944,4.59392441 131.944944,6.68954946 C131.944944,8.85797296 130.235393,9.59760533 128.500473,10.38577 L127.359797,10.8788583 C125.180901,11.8650347 123.296688,12.9744833 123.296688,15.635995 C123.296688,18.5197848 125.749775,20.3688657 128.524867,20.3688657 C130.606186,20.3688657 132.366476,19.3089201 133.356884,17.485076 L131.697098,16.4251304" transform="translate(128.177981, 10.756072) scale(1, -1) translate(-128.177981, -10.756072)"/></g></g></g></g></svg>